<svg id="Layer_1" data-name="Layer 1" xmlns="http://www.w3.org/2000/svg" xmlns:xlink="http://www.w3.org/1999/xlink" viewBox="0 0 1224 1008"><defs><style>.cls-1{fill:none;}.cls-2{clip-path:url(#clip-path);}.cls-3{fill:#88181b;}.cls-4{fill:#3c6f36;}.cls-5{fill:#231f20;}.cls-6{font-size:107.18px;}.cls-6,.cls-7{fill:#010101;font-family:StencilStd, Stencil Std;font-weight:700;}.cls-7{font-size:101.03px;}</style><clipPath id="clip-path"><rect class="cls-1" x="273.14" y="261.47" width="697.86" height="429.45"/></clipPath></defs><title>Artboard 1</title><g class="cls-2"><g class="cls-2"><path class="cls-3" d="M701.62,360.7c21.19,48.15,19,51.67,50.45,85,0,0,3.61,4.25-12.18,26.32s-40.11,8.57-89.56,99.16c0,0-.84,2.39-16,16.78,0,0,4.73,30.33,6.31,37.23,0,0-.63,2.47-15.12,22.87,0,0-5,10.68-17.5,6.09-12-4.41-28.4-3.68-36.29-4.6,0,0-2.63-3.44-2.24-28.27,0,0,16.44-11.72,21.18-16.77,0,0,2.23-11.38,1-19.31l-26.83-12.41s-31.56-84.11,88.37-117.2c0,0,11.58-16.55,12.63-23.44,0,0-1.05-7.36-19.46-5.52,0,0-10,10.57-13.68,13.79,0,0-32.09,17.93-86.79-32.17,0,0-6.85-11.5,18.4-16.09s69.18-5.41,117-36.66c0,0,9.73-4.94,20.25,5.17"/><path class="cls-4" d="M550.91,500.43S541,626.6,560.64,649.89c0,0,3.16,10.11-8.42,7.66,0,0-13.33-12.87-20-18.39,0,0-3.85-63.73-27.7-84.26,0,0-28.76-27.28-35.08-35.24,0,0,0-19,2.46-29.42,0,0,6.31-10.42,29.11-15.63,0,0,23.32,5.67,49.89,25.82"/><path class="cls-5" d="M574.67,316.5s3.77,42.79-1.41,64.42l-6.83,3.91c-15.59,5.34-26.81,15.22-28.92,21.35,0,0-9,9,57.33,49.44,0,0,.35,6.79-20,19,0,0-35.57-6.5-49.6-8.33,0,0-35.75-90.7-30.61-120.87,0,0,9.18-25.23,11.29-27.07s19.95-12.56,35.64-17.16c31.31,11.45,27.73,11.67,33.1,15.32"/><path class="cls-5" d="M664.54,322.55s-2.9,17.24-9.21,40.22c-.53,1.94-17.89,6.66-17.89,6.66s-12.09,5.29-41.73,9c0,0-15.6-20.84-11.22-61A102.37,102.37,0,0,1,609,299.8s38.14,4.6,55.5,22.75"/><path class="cls-5" d="M482.43,339.1s3.51,71.78,29.81,113.45c0,0,1.76,4.91,0,6.13,0,0-4.56,5.75-8.42,6.68,0,0-10.17,1-14-1.47,0,0-55.41-51.17-45.6-104.49,0,0,18.49-14.73,31.22-22.06,0,0,4.55-1.08,7,1.76"/><path class="cls-5" d="M443,398.32s12.65,38.45,32.38,57.29c0,0,2.62,5.29-2.37,6,0,0-24.46,1.84-26.56,0,0,0-32.36-24.82-41.83-54.24,0,0,7.11-15.7,11.84-19.45,0,0,6.05-4.45,8.68,0,0,0,8.15,3.83,12.63,4.75,0,0,6.31.46,5.23,5.67"/></g></g><text class="cls-6" transform="matrix(0.72, -0.69, 0.69, 0.72, 373.46, 341.92)">b</text><text class="cls-6" transform="matrix(0.93, -0.37, 0.37, 0.93, 455.79, 272.73)">l</text><text class="cls-6" transform="translate(542.1 242.52) rotate(-0.93)">a</text><text class="cls-6" transform="translate(643.78 246.46) rotate(20.85)">c</text><text class="cls-6" transform="translate(733.51 284.69) rotate(43.96)">k</text><text class="cls-7" transform="translate(327.74 436.12) rotate(97.28) scale(0.96 1)">p</text><text class="cls-7" transform="translate(319.95 526.99) rotate(77.57) scale(0.96 1)">o</text><text class="cls-7" transform="translate(342.93 617.71) rotate(54.97) scale(0.96 1)">w</text><text class="cls-7" transform="translate(411.42 704.41) rotate(33.74) scale(0.96 1)">e</text><text class="cls-7" transform="matrix(0.93, 0.22, -0.23, 0.97, 484.74, 749.91)">r</text><text class="cls-7" transform="matrix(0.95, -0.12, 0.12, 0.99, 579.95, 768.6)">n</text><text class="cls-7" transform="matrix(0.85, -0.45, 0.46, 0.89, 674.14, 752.37)">o</text><text class="cls-7" transform="matrix(0.62, -0.73, 0.76, 0.65, 754.98, 706.61)">m</text><text class="cls-7" transform="translate(818.53 621.87) rotate(-68.09) scale(0.96 1)">i</text><text class="cls-7" transform="translate(840.64 563.52) rotate(-83.96) scale(0.96 1)">c</text><text class="cls-7" transform="matrix(-0.2, -0.94, 0.98, -0.21, 846.12, 479.57)">s</text></svg>